<?xml version="1.0" encoding="UTF-8"?>
<svg id="Layer_1" xmlns="http://www.w3.org/2000/svg" version="1.1" viewBox="0 0 275.3 55.6">
  <!-- Generator: Adobe Illustrator 29.1.0, SVG Export Plug-In . SVG Version: 2.1.0 Build 142)  -->
  <defs>
    <style>
      .st0 {
        fill: #00ff78;
      }

      .st1 {
        fill: #fff;
      }
    </style>
  </defs>
  <path class="st1" d="M255.5,24.1c4.3,0,6.5,2.9,7.3,6.8h-15.5c1.1-3.8,4-6.8,8.2-6.8M275.3,32.9c0-9.6-7.3-19.4-19.6-19.4s-21.1,8.7-21.1,21,9.3,21,21.1,21,12.1-1.4,17.2-8.1l-9.8-5.7c-2.8,2.6-5.3,3.1-7.1,3.1-3.8,0-6.8-2.4-8.2-5.8h26.7v-.3c.5-1.5.9-3.7.9-5.8M219.3,55.4c5.4,0,10.5-1.9,14.3-5l-6.6-9c-1.6,1.5-4.2,2.6-6.9,2.6-5.4,0-9.4-4.1-9.4-9.6s4-9.6,9.4-9.6,5.4,1.1,7,2.7l6-9.4c-3.7-2.8-8.5-4.6-13.8-4.6-11.3,0-21.7,8.3-21.7,21s10.4,21,21.7,21M182.4,55.4c5.4,0,10.5-1.9,14.3-5l-6.6-9c-1.6,1.5-4.2,2.6-6.9,2.6-5.4,0-9.4-4.1-9.4-9.6s4-9.6,9.4-9.6,5.4,1.1,7,2.7l6-9.4c-3.7-2.8-8.5-4.6-13.8-4.6-11.3,0-21.7,8.3-21.7,21s10.4,21,21.7,21M120.8,54.1h13.1V0h-13.1s0,54.1,0,54.1ZM97.7,55.6c10.2,0,17.8-5.2,17.8-13.6s-4.2-9.4-11.7-12.1c-6-2-8.1-2.7-8.1-4.1s1.4-1.6,3.3-1.6c3,0,5.9,1.1,7.8,3l6.6-7.4c-2.1-3.8-8.1-6.3-14-6.3s-16,4.6-16,13.2,4.9,10.1,11.7,12.2c3.9,1.4,7.3,2.5,7.3,4.1s-1.9,1.8-3.6,1.8c-4.6,0-9.2-2.3-10.9-4.5l-5.8,7.9c2.1,4.2,8.4,7.4,15.7,7.4"/>
  <rect class="st1" x="142" y="17.6" width="13.1" height="36.5"/>
  <rect class="st1" x="142" width="13.1" height="13.1"/>
  <rect class="st1" x="49.9" y="41" width="13.1" height="13.1"/>
  <rect class="st0" x="49.9" y="25.2" width="13.1" height="13.1"/>
  <rect class="st1" x="33.3" y="41" width="13.1" height="13.1"/>
  <rect class="st1" x="33.3" y="25.2" width="13.1" height="13.1"/>
  <rect class="st1" x="33.3" y="9.4" width="13.1" height="13.1"/>
  <rect class="st0" x="16.6" y="41" width="13.1" height="13.1"/>
  <rect class="st1" x="16.6" y="25.2" width="13.1" height="13.1"/>
  <rect class="st1" y="41" width="13.1" height="13.1"/>
</svg>